# xmcd
#
# Track frame offsets:
# 150
# 14085
# 31837
# 44042
# 69217
# 88772
# 109525
# 124127
# 136075
# 150625
#
# Disc length: 2284 seconds
#
#
# Revision: 6
# Processed by: cddbd v1.5.1PL0 Copyright (c) Steve Scherf et al.
# Submitted via: FreeRIP 2.80 
#
DISCID=7e08ea0a
DTITLE=Various Artist - Rollin' and Tumblin' - Mestres do Blues
DYEAR=1999
DGENRE=Blues
TTITLE0=Junior Wells - Hoodoo Man
TTITLE1=Jimmy Dawkins - Little Angel Child
TTITLE2=Magic Sam - Mama, Mama - Talk To Your Daughter
TTITLE3=Bonnie Lee - That's All Right
TTITLE4=Otis Rush - All Your Love (I Miss Loving)
TTITLE5=Carey Bell - Everything's Gonna Be All Right
TTITLE6=Big Joe Williams - Good Morning Little School Girl
TTITLE7=Memphis Slim - She's Allright
TTITLE8=Little Walter - Rollin' And Tumblin'
TTITLE9=Dave Specter and Lenny Lyn - City Boy Blues
EXTD=1999/03/02 - 02/03/1999 - Banca de Jornais - R$ 8,50 - dolar: R$ 2,05 - Abril Music - Brasil - revista Showbizz nr 10 - update by MSF - 18/10/2003
EXTT0=
EXTT1=
EXTT2=
EXTT3=
EXTT4=
EXTT5=
EXTT6=
EXTT7=
EXTT8=
EXTT9=
PLAYORDER=
